<?xml version="1.0" standalone="no"?>
<!DOCTYPE svg PUBLIC "-//W3C//DTD SVG 20010904//EN"
 "http://www.w3.org/TR/2001/REC-SVG-20010904/DTD/svg10.dtd">
<svg version="1.0" xmlns="http://www.w3.org/2000/svg"
 width="96.000000pt" height="96.000000pt" viewBox="0 0 96.000000 96.000000"
 preserveAspectRatio="xMidYMid meet">

<g transform="translate(0.000000,96.000000) scale(0.100000,-0.100000)"
fill="#000000" stroke="none">
<path d="M95 946 c-41 -18 -83 -69 -90 -109 -3 -18 -5 -190 -3 -384 3 -337 4
-353 24 -379 11 -15 33 -37 48 -48 27 -20 39 -21 406 -21 367 0 379 1 406 21
15 11 37 33 48 48 20 27 21 39 21 406 0 367 -1 379 -21 406 -11 15 -33 37 -48
48 -26 20 -41 21 -394 23 -290 2 -373 0 -397 -11z m419 -157 c30 -14 50 -59
41 -89 -6 -18 5 -34 56 -87 53 -53 68 -63 88 -58 61 15 115 -46 91 -104 -13
-34 -56 -55 -91 -46 -20 5 -35 -5 -88 -58 -51 -53 -62 -69 -56 -87 10 -32 -12
-77 -46 -90 -57 -24 -122 33 -104 90 6 18 -5 34 -56 87 -53 53 -68 63 -88 58
-61 -15 -115 46 -91 104 13 34 58 56 90 46 18 -6 34 5 87 56 53 53 63 68 58
88 -8 32 11 76 38 89 29 14 41 14 71 1z"/>
<path d="M373 588 c-54 -55 -58 -62 -59 -108 -1 -47 2 -51 58 -107 55 -54 62
-58 108 -59 47 -1 51 2 107 58 54 55 58 62 59 108 1 47 -2 51 -58 107 -55 54
-62 58 -108 59 -47 1 -51 -2 -107 -58z"/>
</g>
</svg>
